<svg xmlns="http://www.w3.org/2000/svg" width="121" height="39" viewBox="0 0 121 39"><defs><style>.cls-2{fill:#fff}</style></defs><g id="Download_on_the_App_Store_Badge_US-UK_RGB_wht_092917" transform="translate(-.063 -.146)"><g id="Group_7764"><g id="Group_7762"><rect id="Rectangle_15198" width="121" height="39" fill="#121212" rx="6" transform="translate(.063 .146)"/></g></g><g id="Group_32435" transform="translate(0 -.601)"><g id="_Group_" transform="translate(8.951 7.144)"><g id="_Group_2" transform="translate(0 1)"><g id="_Group_3"><path id="_Path_" d="M25.376 20.051a5.27 5.27 0 0 1 2.511-4.424 5.4 5.4 0 0 0-4.253-2.3C21.845 13.141 20.11 14.4 19.2 14.4c-.929 0-2.333-1.052-3.845-1.021a5.66 5.66 0 0 0-4.766 2.907c-2.061 3.568-.524 8.811 1.45 11.7.988 1.412 2.142 2.99 3.652 2.934 1.478-.061 2.03-.942 3.814-.942 1.767 0 2.285.942 3.826.907 1.586-.026 2.585-1.418 3.538-2.844a11.7 11.7 0 0 0 1.618-3.3 5.1 5.1 0 0 1-3.11-4.687z" class="cls-2" transform="translate(-9.609 -7.712)"/><path id="_Path_2" d="M22.239 11.566a5.2 5.2 0 0 0 1.188-3.719 5.28 5.28 0 0 0-3.418 1.768A4.94 4.94 0 0 0 18.79 13.2a4.37 4.37 0 0 0 3.449-1.634" class="cls-2" transform="translate(-9.383 -7.847)"/></g></g><g id="Group_7763" transform="translate(25.429 10.271)"><path id="Path_24213" d="M42.5 27.363h-4.85L36.481 30.8h-2.054l4.594-12.724h2.134L45.749 30.8h-2.09zm-4.348-1.587h3.844l-1.9-5.581h-.053z" class="cls-2" transform="translate(-34.427 -17.866)"/><path id="Path_24214" d="M55.369 26.084c0 2.883-1.543 4.735-3.871 4.735a3.15 3.15 0 0 1-2.919-1.619h-.044v4.59h-1.9V21.445h1.843v1.543h.035a3.29 3.29 0 0 1 2.954-1.64c2.35 0 3.902 1.861 3.902 4.736m-1.957 0c0-1.878-.971-3.113-2.451-3.113-1.455 0-2.433 1.261-2.433 3.113 0 1.869.979 3.121 2.433 3.121 1.481 0 2.451-1.226 2.451-3.121" class="cls-2" transform="translate(-34.126 -17.785)"/><path id="Path_24215" d="M65.335 26.084c0 2.883-1.543 4.735-3.872 4.735a3.15 3.15 0 0 1-2.919-1.619H58.5v4.59h-1.9V21.445h1.843v1.543h.035a3.29 3.29 0 0 1 2.954-1.64c2.35 0 3.903 1.861 3.903 4.736m-1.958 0c0-1.878-.971-3.113-2.451-3.113-1.455 0-2.433 1.261-2.433 3.113 0 1.869.979 3.121 2.433 3.121 1.48-.005 2.451-1.226 2.451-3.121" class="cls-2" transform="translate(-33.881 -17.785)"/><path id="Path_24216" d="M71.756 27.262c.141 1.262 1.367 2.09 3.042 2.09 1.6 0 2.76-.828 2.76-1.966 0-.988-.7-1.579-2.345-1.984L73.563 25c-2.336-.564-3.421-1.657-3.421-3.43 0-2.2 1.913-3.7 4.629-3.7 2.69 0 4.533 1.508 4.595 3.7h-1.922c-.115-1.27-1.165-2.036-2.7-2.036s-2.584.775-2.584 1.9c0 .9.67 1.429 2.31 1.834l1.4.344c2.611.617 3.694 1.666 3.694 3.527 0 2.38-1.9 3.871-4.911 3.871-2.822 0-4.727-1.456-4.85-3.757z" class="cls-2" transform="translate(-33.556 -17.871)"/><path id="Path_24217" d="M83.425 19.3v2.2h1.764V23h-1.764v5.114c0 .794.353 1.165 1.129 1.165a6 6 0 0 0 .626-.044v1.5a5.2 5.2 0 0 1-1.058.088c-1.878 0-2.611-.705-2.611-2.5V23h-1.348v-1.5h1.349v-2.2z" class="cls-2" transform="translate(-33.301 -17.836)"/><path id="Path_24218" d="M86.064 26.084c0-2.919 1.719-4.753 4.4-4.753s4.4 1.834 4.4 4.753-1.7 4.753-4.4 4.753-4.4-1.826-4.4-4.753m6.86 0c0-2-.918-3.184-2.46-3.184S88 24.091 88 26.084c0 2.01.918 3.183 2.46 3.183s2.46-1.173 2.46-3.183z" class="cls-2" transform="translate(-33.155 -17.786)"/><path id="Path_24219" d="M96.185 21.445H98v1.579h.044a2.21 2.21 0 0 1 2.231-1.676 3 3 0 0 1 .652.071V23.2a2.7 2.7 0 0 0-.856-.115 1.92 1.92 0 0 0-1.984 2.134v5.5h-1.9z" class="cls-2" transform="translate(-32.906 -17.785)"/><path id="Path_24220" d="M109.584 28c-.256 1.684-1.9 2.84-3.994 2.84-2.7 0-4.374-1.808-4.374-4.709s1.684-4.8 4.294-4.8c2.567 0 4.181 1.763 4.181 4.576v.652h-6.552v.115a2.416 2.416 0 0 0 2.5 2.628 2.1 2.1 0 0 0 2.142-1.3zm-6.437-2.769h4.638a2.23 2.23 0 0 0-2.275-2.354 2.35 2.35 0 0 0-2.362 2.354z" class="cls-2" transform="translate(-32.782 -17.786)"/></g></g><g id="_Group_4" transform="translate(35.654 7.748)"><g id="Group_7765"><path id="Path_24221" d="M37.879 8.731a2.7 2.7 0 0 1 2.877 3.038c0 1.953-1.056 3.076-2.877 3.076h-2.208V8.731zM36.62 13.98h1.153a1.922 1.922 0 0 0 2.016-2.2 1.927 1.927 0 0 0-2.016-2.18H36.62z" class="cls-2" transform="translate(-35.671 -8.43)"/><path id="Path_24222" d="M41.681 12.5a2.186 2.186 0 1 1 4.352 0 2.186 2.186 0 1 1-4.352 0m3.415 0c0-1-.449-1.585-1.238-1.585s-1.237.585-1.237 1.585.445 1.588 1.237 1.588S45.1 13.506 45.1 12.5z" class="cls-2" transform="translate(-35.523 -8.396)"/><path id="Path_24223" d="M51.7 14.809h-.945l-.954-3.4h-.072l-.95 3.4h-.936l-1.272-4.614h.924l.826 3.521h.068l.949-3.521h.874l.949 3.521h.072l.822-3.521h.911z" class="cls-2" transform="translate(-35.403 -8.394)"/><path id="Path_24224" d="M53.854 10.2h.877v.733h.069a1.38 1.38 0 0 1 1.377-.822 1.5 1.5 0 0 1 1.6 1.716v2.987h-.911v-2.761c0-.741-.322-1.11-1-1.11a1.058 1.058 0 0 0-1.1 1.169v2.7h-.911z" class="cls-2" transform="translate(-35.223 -8.396)"/><path id="Path_24225" d="M59.094 8.437H60v6.415h-.911z" class="cls-2" transform="translate(-35.094 -8.437)"/><path id="Path_24226" d="M61.218 12.5a2.186 2.186 0 1 1 4.352 0 2.186 2.186 0 1 1-4.352 0m3.415 0c0-1-.449-1.585-1.238-1.585s-1.237.585-1.237 1.585.442 1.59 1.242 1.59 1.238-.584 1.238-1.588z" class="cls-2" transform="translate(-35.042 -8.396)"/><path id="Path_24227" d="M66.4 13.506c0-.831.618-1.309 1.716-1.377l1.25-.072v-.4c0-.487-.322-.762-.945-.762-.508 0-.861.187-.962.513h-.882c.093-.792.839-1.3 1.885-1.3 1.157 0 1.809.576 1.809 1.55v3.152H69.4v-.648h-.072a1.55 1.55 0 0 1-1.386.724 1.394 1.394 0 0 1-1.542-1.38m2.966-.394v-.386l-1.126.074c-.635.043-.924.259-.924.665s.36.657.856.657a1.09 1.09 0 0 0 1.195-1.009z" class="cls-2" transform="translate(-34.914 -8.396)"/><path id="Path_24228" d="M71.348 12.543c0-1.458.749-2.381 1.915-2.381a1.52 1.52 0 0 1 1.415.809h.068V8.437h.911v6.415h-.873v-.729h-.072a1.6 1.6 0 0 1-1.449.8c-1.173.005-1.915-.923-1.915-2.38m.941 0c0 .979.461 1.567 1.233 1.567s1.242-.6 1.242-1.563-.479-1.567-1.242-1.567-1.233.593-1.233 1.563" class="cls-2" transform="translate(-34.793 -8.437)"/><path id="Path_24229" d="M79.23 12.5a2.186 2.186 0 1 1 4.352 0 2.186 2.186 0 1 1-4.352 0m3.415 0c0-1-.449-1.585-1.238-1.585S80.17 11.5 80.17 12.5s.445 1.588 1.237 1.588 1.238-.582 1.238-1.588" class="cls-2" transform="translate(-34.599 -8.396)"/><path id="Path_24230" d="M84.669 10.2h.877v.733h.068a1.38 1.38 0 0 1 1.377-.822 1.5 1.5 0 0 1 1.6 1.716v2.987h-.911v-2.761c0-.741-.322-1.11-1-1.11a1.058 1.058 0 0 0-1.1 1.169v2.7h-.911z" class="cls-2" transform="translate(-34.465 -8.396)"/><path id="Path_24231" d="M93.555 9.074v1.17h1v.767h-1v2.372c0 .483.2.695.652.695a3 3 0 0 0 .347-.021v.758a3 3 0 0 1-.5.047c-1.013 0-1.416-.356-1.416-1.246V11.01h-.732v-.767h.732V9.074z" class="cls-2" transform="translate(-34.286 -8.421)"/><path id="Path_24232" d="M95.7 8.437h.9v2.543h.072a1.42 1.42 0 0 1 1.407-.826 1.52 1.52 0 0 1 1.589 1.72v2.979h-.911V12.1c0-.737-.343-1.11-.987-1.11a1.078 1.078 0 0 0-1.162 1.17v2.695H95.7z" class="cls-2" transform="translate(-34.193 -8.437)"/><path id="Path_24233" d="M104.861 13.565a1.87 1.87 0 0 1-2 1.335 2.1 2.1 0 0 1-2.131-2.381 2.128 2.128 0 0 1 2.127-2.41c1.284 0 2.058.877 2.058 2.326v.318h-3.258v.047a1.22 1.22 0 0 0 1.229 1.322 1.11 1.11 0 0 0 1.1-.559zm-3.2-1.487h2.33a1.113 1.113 0 0 0-1.136-1.2 1.18 1.18 0 0 0-1.195 1.2z" class="cls-2" transform="translate(-34.07 -8.396)"/></g></g></g></g></svg>