<svg width="72" height="72" viewBox="0 0 72 72" fill="none" xmlns="http://www.w3.org/2000/svg">
<rect x="0.5" y="0.5" width="71" height="71" rx="8.22727" fill="white"/>
<rect x="0.5" y="0.5" width="71" height="71" rx="8.22727" stroke="#FFFFFF"/>
<g clip-path="url(#clip0_29_5677)">
<path d="M47.2587 37.1321C47.2409 33.8655 48.7184 31.4 51.7091 29.5842C50.0358 27.1899 47.5079 25.8726 44.1702 25.6145C41.0104 25.3653 37.5569 27.4569 36.293 27.4569C34.9579 27.4569 31.896 25.7035 29.4928 25.7035C24.5262 25.7836 19.248 29.6643 19.248 37.5593C19.248 39.8913 19.6753 42.3004 20.5298 44.7867C21.6691 48.0533 25.7812 56.064 30.0714 55.9304C32.3144 55.877 33.8987 54.3372 36.8181 54.3372C39.6486 54.3372 41.1172 55.9304 43.6183 55.9304C47.9441 55.8681 51.6646 48.5873 52.7505 45.3118C46.9472 42.5793 47.2587 37.3012 47.2587 37.1321ZM42.2209 22.517C44.6508 19.6332 44.4283 17.0074 44.3571 16.064C42.212 16.1886 39.7287 17.5237 38.3135 19.1703C36.7558 20.9327 35.8391 23.1134 36.0349 25.57C38.358 25.748 40.4763 24.5553 42.2209 22.517Z" fill="black"/>
</g>
<defs>
<clipPath id="clip0_29_5677">
<rect width="40" height="40" fill="white" transform="translate(16 16)"/>
</clipPath>
</defs>
</svg>
