<svg xmlns="http://www.w3.org/2000/svg" width="121" height="39" viewBox="0 0 121 39"><defs><linearGradient id="linear-gradient" x1=".915" x2="-.383" y1="6.614" y2="5.945" gradientUnits="objectBoundingBox"><stop offset="0" stop-color="#00a0ff"/><stop offset=".007" stop-color="#00a1ff"/><stop offset=".26" stop-color="#00beff"/><stop offset=".512" stop-color="#00d2ff"/><stop offset=".76" stop-color="#00dfff"/><stop offset="1" stop-color="#00e3ff"/></linearGradient><linearGradient id="linear-gradient-2" x1="1.076" x2="-1.305" y1="17.098" y2="17.098" gradientUnits="objectBoundingBox"><stop offset="0" stop-color="#ffe000"/><stop offset=".409" stop-color="#ffbd00"/><stop offset=".775" stop-color="orange"/><stop offset="1" stop-color="#ff9c00"/></linearGradient><linearGradient id="linear-gradient-3" x1=".862" x2="-.501" y1="10.863" y2="9.093" gradientUnits="objectBoundingBox"><stop offset="0" stop-color="#ff3a44"/><stop offset="1" stop-color="#c31162"/></linearGradient><linearGradient id="linear-gradient-4" x1="-.188" x2=".421" y1="13.583" y2="12.793" gradientUnits="objectBoundingBox"><stop offset="0" stop-color="#32a071"/><stop offset=".068" stop-color="#2da771"/><stop offset=".476" stop-color="#15cf74"/><stop offset=".801" stop-color="#06e775"/><stop offset="1" stop-color="#00f076"/></linearGradient><style>.cls-2{fill:#fff;stroke:#fff;stroke-miterlimit:10;stroke-width:.2px}.cls-9{opacity:.12}</style></defs><g id="Download_on_the_App_Store_Badge_US-UK_RGB_wht_092917" transform="translate(-.059 -.146)"><g id="Group_7764"><g id="Group_7762"><rect id="Rectangle_15197" width="121" height="39" fill="#121212" rx="6" transform="translate(.059 .146)"/></g></g><g id="Group_7772" transform="translate(36.664 8.188)"><path id="Path_24235" d="M56.835 19.919a2.45 2.45 0 0 1-.673 1.811 2.63 2.63 0 0 1-1.992.8 2.85 2.85 0 0 1-2-4.851 2.73 2.73 0 0 1 2-.814 2.8 2.8 0 0 1 1.114.227 2.2 2.2 0 0 1 .848.607l-.476.476a1.83 1.83 0 0 0-1.485-.643 2.2 2.2 0 0 0-1.481 3.73 2.16 2.16 0 0 0 3 0 1.7 1.7 0 0 0 .455-1.1H54.17v-.652h2.63a2.3 2.3 0 0 1 .035.409z" class="cls-2" transform="translate(-51.352 -16.866)"/><path id="Path_24236" d="M61.691 17.666h-2.47v1.72h2.227v.651h-2.227v1.72h2.47v.666h-3.166V17h3.166z" class="cls-2" transform="translate(-52.041 -16.879)"/><path id="Path_24237" d="M65.044 22.424h-.7v-4.758h-1.512V17h3.727v.666h-1.515z" class="cls-2" transform="translate(-52.455 -16.879)"/><path id="Path_24238" d="M69.938 22.424V17h.7v5.424z" class="cls-2" transform="translate(-53.137 -16.879)"/><path id="Path_24239" d="M73.893 22.424h-.7v-4.758h-1.512V17h3.727v.666h-1.515z" class="cls-2" transform="translate(-53.305 -16.879)"/><path id="Path_24240" d="M83.1 21.71a2.816 2.816 0 0 1-3.976 0 2.93 2.93 0 0 1 0-4.022 2.81 2.81 0 0 1 3.973 0 2.92 2.92 0 0 1 0 4.019zm-3.462-.455a2.086 2.086 0 0 0 2.947 0 2.31 2.31 0 0 0 0-3.113 2.086 2.086 0 0 0-2.947 0 2.313 2.313 0 0 0 0 3.113z" class="cls-2" transform="translate(-53.943 -16.866)"/><path id="Path_24241" d="M85.575 22.424V17h.849l2.636 4.219h.03l-.03-1.045V17h.7v5.424h-.73L86.272 18h-.03l.03 1.046v3.378z" class="cls-2" transform="translate(-54.64 -16.879)"/></g><path id="Path_24235-2" fill="#fff" d="M75.533 31.3a3.844 3.844 0 1 0 3.859 3.844 3.79 3.79 0 0 0-3.859-3.844m0 6.174a2.336 2.336 0 1 1 2.167-2.33 2.224 2.224 0 0 1-2.167 2.33M67.115 31.3a3.844 3.844 0 1 0 3.859 3.844 3.79 3.79 0 0 0-3.859-3.844m0 6.174a2.336 2.336 0 1 1 2.169-2.329 2.224 2.224 0 0 1-2.169 2.329M57.1 32.48v1.63H61a3.4 3.4 0 0 1-.888 2.053 4 4 0 0 1-3.012 1.194 4.34 4.34 0 0 1 0-8.679 4.16 4.16 0 0 1 2.941 1.165l1.151-1.151a5.7 5.7 0 0 0-4.092-1.645 5.972 5.972 0 1 0 0 11.942 5.46 5.46 0 0 0 4.164-1.675 5.4 5.4 0 0 0 1.413-3.814 5.3 5.3 0 0 0-.088-1.019zm40.956 1.266a3.57 3.57 0 0 0-3.292-2.446 3.653 3.653 0 0 0-3.626 3.844 3.76 3.76 0 0 0 3.816 3.844 3.82 3.82 0 0 0 3.2-1.7l-1.311-.874a2.2 2.2 0 0 1-1.893 1.063 1.96 1.96 0 0 1-1.865-1.164l5.141-2.127zm-5.243 1.282a2.11 2.11 0 0 1 2.009-2.243 1.49 1.49 0 0 1 1.427.815zm-4.179 3.728h1.689v-11.3h-1.689zm-2.768-6.6h-.058a2.67 2.67 0 0 0-2.024-.859 3.848 3.848 0 0 0 0 7.689 2.62 2.62 0 0 0 2.024-.874h.058v.554c0 1.471-.786 2.257-2.053 2.257a2.13 2.13 0 0 1-1.937-1.369l-1.471.612a3.66 3.66 0 0 0 3.408 2.272c1.981 0 3.656-1.165 3.656-4v-6.9h-1.6zm-1.936 5.318a2.338 2.338 0 0 1 0-4.66 2.349 2.349 0 0 1 0 4.66m22.039-10.018h-4.042v11.3h1.686v-4.281h2.356a3.515 3.515 0 1 0 0-7.019m.043 5.446h-2.4v-3.874h2.4a1.937 1.937 0 1 1 0 3.873zm10.424-1.623a3.17 3.17 0 0 0-3.01 1.729l1.5.626a1.6 1.6 0 0 1 1.541-.829 1.624 1.624 0 0 1 1.774 1.454v.116a3.7 3.7 0 0 0-1.759-.436c-1.614 0-3.257.887-3.257 2.544a2.61 2.61 0 0 0 2.806 2.487 2.38 2.38 0 0 0 2.152-1.105h.058v.872h1.628V34.4c-.002-2-1.499-3.121-3.433-3.121m-.2 6.193c-.553 0-1.323-.276-1.323-.959 0-.872.959-1.207 1.788-1.207a3 3 0 0 1 1.541.378 2.045 2.045 0 0 1-2.009 1.788zm9.565-5.946-1.934 4.9h-.058l-2.007-4.9h-1.817l3.009 6.847-1.716 3.809h1.759l4.638-10.656zm-15.192 7.23h1.687v-11.3h-1.687z" transform="translate(-14.658 -9.656)"/><g id="Group_7773" transform="translate(8.299 8.436)"><path id="Path_24243" fill="url(#linear-gradient)" d="M20.391 17.531a1.81 1.81 0 0 0-.418 1.27v19.991a1.8 1.8 0 0 0 .418 1.27l.067.065 11.2-11.2v-.264l-11.2-11.2z" transform="translate(-19.973 -17.172)"/><path id="Path_24244" fill="url(#linear-gradient-2)" d="M36.631 33.457 32.9 29.722v-.264l3.734-3.734.084.049 4.423 2.513c1.263.718 1.263 1.892 0 2.61l-4.423 2.513z" transform="translate(-21.215 -17.965)"/><path id="Path_24245" fill="url(#linear-gradient-3)" d="M35.519 33.819 31.7 30 20.435 41.267a1.47 1.47 0 0 0 1.879.055l13.2-7.5" transform="translate(-20.017 -18.376)"/><path id="Path_24246" fill="url(#linear-gradient-4)" d="m35.519 24.947-13.2-7.5a1.47 1.47 0 0 0-1.879.055L31.7 28.765z" transform="translate(-20.017 -17.14)"/><g id="Group_7769" transform="translate(0 15.359)"><path id="Path_24247" d="m35.435 34.132-13.121 7.455a1.505 1.505 0 0 1-1.811.01l-.068.067.067.066a1.505 1.505 0 0 0 1.811-.01l13.2-7.5z" opacity=".2" transform="translate(-20.017 -34.132)"/><path id="Path_24248" d="M20.391 42.183a1.8 1.8 0 0 1-.418-1.27v.133a1.8 1.8 0 0 0 .418 1.269l.068-.067z" class="cls-9" transform="translate(-19.973 -34.783)"/></g><path id="Path_24249" d="m41.536 31.174-4.507 2.561.084.084 4.423-2.513A1.59 1.59 0 0 0 42.483 30a1.68 1.68 0 0 1-.947 1.174" class="cls-9" transform="translate(-21.611 -18.376)"/><path id="Path_24250" fill="#fff" d="M22.27 17.577 39.9 27.592a1.68 1.68 0 0 1 .947 1.173 1.58 1.58 0 0 0-.947-1.305L22.27 17.445c-1.264-.718-2.3-.121-2.3 1.325v.13c.003-1.444 1.036-2.041 2.3-1.323" opacity=".25" transform="translate(-19.973 -17.14)"/></g></g></svg>