<svg width="41" height="40" viewBox="0 0 41 40" fill="none" xmlns="http://www.w3.org/2000/svg">
<g clip-path="url(#clip0_82_273)">
<path d="M10.837 20.1611V15.573H11.5524H12.2678V15.8763C12.2678 16.0431 12.2704 16.1796 12.2735 16.1796C12.2766 16.1796 12.3669 16.1246 12.4742 16.0574C13.7397 15.2648 15.5792 15.0261 17.2292 15.4405C18.7157 15.8138 19.7933 16.7 20.1763 17.8641C20.4002 18.5444 20.3878 19.301 20.1422 19.9589C19.8365 20.7774 19.2082 21.4354 18.302 21.8862C17.5089 22.2806 16.6035 22.4782 15.5884 22.4782C14.7468 22.4782 13.9619 22.3379 13.271 22.0639C12.9968 21.9552 12.6454 21.7767 12.4322 21.6379L12.2678 21.5309V23.1401V24.7492H11.5524H10.837V20.1611ZM16.2805 21.2584C17.0853 21.1443 17.7097 20.8889 18.1779 20.4825C18.5323 20.1749 18.7791 19.7476 18.8726 19.2799C18.9109 19.0886 18.911 18.6368 18.873 18.4461C18.763 17.8957 18.4475 17.4148 17.9753 17.0777C17.785 16.9417 17.3984 16.7481 17.1516 16.6651C16.4547 16.4307 15.6098 16.3613 14.836 16.4748C13.4923 16.672 12.5842 17.3384 12.3406 18.3059C12.2331 18.7328 12.2523 19.1936 12.3943 19.5964C12.717 20.5112 13.6685 21.12 15.0131 21.272C15.2834 21.3025 16.0257 21.2946 16.2807 21.2584H16.2805ZM21.0241 20.1611V15.573H21.7395H22.455V15.8763C22.455 16.0431 22.4581 16.1796 22.4619 16.1796C22.4657 16.1796 22.5444 16.1303 22.6368 16.07C22.8507 15.9306 23.2729 15.722 23.5437 15.6221C24.7123 15.1907 26.1392 15.1212 27.388 15.4347C29.4235 15.9457 30.6223 17.3459 30.5091 19.0802C30.4227 20.4041 29.5418 21.4915 28.0929 22.063C27.6202 22.2494 27.1358 22.3669 26.5296 22.4423C26.2097 22.4821 25.3474 22.4821 25.0134 22.4422C24.0681 22.3295 23.2381 22.0488 22.591 21.6229L22.455 21.5334V23.1413V24.7492H21.7395H21.0241V20.1611ZM26.5022 21.2517C27.6169 21.0852 28.4024 20.6362 28.8151 19.9294C29.0549 19.519 29.1446 18.9729 29.0557 18.4659C28.8709 17.412 27.9448 16.6828 26.5268 16.4746C25.5909 16.3373 24.5342 16.4741 23.8158 16.8257C23.0826 17.1845 22.6413 17.7204 22.4906 18.4348C22.4511 18.6223 22.4512 19.1044 22.491 19.2882C22.5977 19.783 22.8388 20.1924 23.2048 20.5001C23.7088 20.9238 24.3647 21.176 25.2158 21.2736C25.4973 21.3058 26.2224 21.2935 26.5024 21.2517H26.5022ZM4.92687 22.4687C4.16787 22.4017 3.52003 22.2521 2.96914 22.0168C1.71614 21.4816 0.924736 20.5784 0.70996 19.4383C0.66894 19.2205 0.653292 18.73 0.679892 18.4956C0.834988 17.1287 1.84188 16.0461 3.43379 15.5345C4.28094 15.2622 5.32372 15.1733 6.25968 15.2935C7.97449 15.5136 9.27163 16.3088 9.84176 17.4893C10.306 18.4506 10.2471 19.6182 9.68907 20.5158C9.43769 20.9201 9.02382 21.3374 8.59735 21.6165C7.93385 22.0507 7.14137 22.3209 6.17887 22.4409C5.98608 22.465 5.1057 22.4845 4.92687 22.4687ZM5.94186 21.2734C6.68826 21.1942 7.31615 20.9811 7.7886 20.6467C8.17481 20.3734 8.48044 19.9705 8.61757 19.5539C8.69784 19.3101 8.71377 19.1956 8.71377 18.8625C8.71377 18.5303 8.69807 18.4167 8.61843 18.1727C8.35664 17.3708 7.59094 16.7743 6.52104 16.5388C5.583 16.3323 4.48906 16.404 3.67854 16.7252C3.0938 16.9569 2.63225 17.332 2.36158 17.7955C2.07377 18.2883 2.00847 18.9595 2.19208 19.538C2.3899 20.1612 2.91104 20.6828 3.6282 20.9754C4.01882 21.1348 4.50248 21.2458 4.9813 21.286C5.16502 21.3015 5.74999 21.2938 5.94186 21.2734ZM35.4572 22.4692C35.4272 22.4658 35.3222 22.4554 35.2239 22.4461C34.434 22.3712 33.6036 22.1218 32.9949 21.7765C32.1719 21.3098 31.5987 20.6464 31.337 19.8578C31.16 19.3242 31.1297 18.7245 31.2521 18.1727C31.4371 17.3384 31.945 16.63 32.7336 16.106C33.7737 15.415 35.3029 15.1081 36.7791 15.2941C38.0056 15.4487 39.0161 15.8972 39.7191 16.5993C40.2546 17.134 40.5625 17.7604 40.6514 18.4966C40.6746 18.6879 40.671 19.0747 40.6442 19.2777C40.4512 20.7394 39.2925 21.8566 37.5179 22.2919C36.9799 22.4238 36.6421 22.4638 36.0093 22.4703C35.7355 22.4731 35.4871 22.4726 35.4572 22.4692ZM36.3981 21.2807C37.3429 21.1938 38.1129 20.8824 38.6072 20.3875C38.9419 20.0524 39.1362 19.6834 39.2128 19.2376C39.2443 19.0538 39.2439 18.6709 39.2119 18.4803C39.0397 17.4543 38.1351 16.7107 36.7947 16.4931C36.4729 16.4408 36.2589 16.4238 35.9237 16.4238C34.4209 16.4238 33.2549 16.9904 32.8065 17.9387C32.6728 18.2213 32.6111 18.513 32.6111 18.8625C32.6111 19.3236 32.7186 19.6894 32.9612 20.0538C33.4066 20.7229 34.2513 21.1503 35.3693 21.2724C35.5999 21.2976 36.1652 21.3021 36.3981 21.2807Z" fill="#006B33"/>
</g>
<defs>
<clipPath id="clip0_82_273">
<rect width="40" height="40" fill="white" transform="translate(0.666748)"/>
</clipPath>
</defs>
</svg>
