<svg width="41" height="40" viewBox="0 0 41 40" fill="none" xmlns="http://www.w3.org/2000/svg">
<g clip-path="url(#clip0_82_2362)">
<path d="M38.3105 19.4908V20.3248H38.8966V21.1523C38.8981 21.2157 38.8954 21.2833 38.8866 21.3415L38.8817 21.3698C38.8807 21.3761 38.8796 21.3825 38.8782 21.3892L38.8734 21.4095C38.8725 21.413 38.8716 21.4165 38.8705 21.42L38.8637 21.4415C38.811 21.5938 38.6523 21.7869 38.2957 21.7869C37.9159 21.7869 37.7635 21.5653 37.7218 21.4095L37.7169 21.3892L37.7132 21.3698C37.7027 21.306 37.6982 21.2262 37.6982 21.1523V18.5388C37.6982 18.4566 37.7032 18.3675 37.718 18.295L37.7281 18.2509C37.7288 18.2478 37.7296 18.2447 37.7304 18.2416L37.736 18.2222C37.737 18.2188 37.7381 18.2155 37.7392 18.2121L37.7465 18.1913C37.8006 18.0469 37.944 17.8546 38.2926 17.8546C38.5618 17.8546 38.7067 17.9643 38.7841 18.0776L38.7979 18.0989C38.8022 18.106 38.8063 18.1131 38.8101 18.1201L38.821 18.1411L38.8305 18.1617L38.8388 18.1817L38.8458 18.2011L38.8519 18.2196L38.8569 18.2372L38.861 18.2535L38.8643 18.2686C38.8658 18.2761 38.8671 18.284 38.8684 18.2923L38.8718 18.3179C38.8723 18.3223 38.8728 18.3267 38.8732 18.3311L38.8768 18.3713L38.8791 18.4098L38.8812 18.4623L38.8817 18.4892V18.8065H40.3218L40.3221 18.609L40.323 18.5383L40.3227 18.4835L40.3215 18.4198L40.3203 18.3854L40.3177 18.3319L40.314 18.2771L40.3108 18.2405C40.2134 17.275 39.4878 16.9036 38.6048 16.839L38.5457 16.8351L38.4862 16.8321C38.4564 16.8309 38.4263 16.8299 38.3962 16.8293L38.3357 16.8285C38.3256 16.8284 38.3155 16.8284 38.3053 16.8284L38.2446 16.8288C38.2345 16.8289 38.2244 16.8291 38.2144 16.8293L38.1542 16.831L38.0945 16.8336L38.0353 16.837L37.9765 16.8413C37.957 16.8429 37.9376 16.8447 37.9183 16.8466L37.8605 16.8528C37.851 16.8539 37.8414 16.8551 37.8319 16.8563L37.7751 16.8639C37.6431 16.8829 37.5162 16.91 37.3959 16.9462L37.3448 16.9623C36.7868 17.1454 36.3813 17.5346 36.298 18.2405L36.2894 18.3188L36.2835 18.3795L36.278 18.4431L36.2735 18.5064C36.2709 18.5477 36.2692 18.5867 36.2692 18.6189L36.2693 21.0539L36.2697 21.0841L36.271 21.13L36.2724 21.1622L36.2744 21.1966L36.277 21.234L36.2802 21.2752L36.2866 21.3459L36.292 21.4002C36.3728 22.2973 37.0528 22.6964 37.8848 22.7905L37.9431 22.7966C38.0406 22.8059 38.1401 22.8112 38.2408 22.8127L38.3013 22.8131L38.3622 22.8127C38.4634 22.8112 38.5634 22.8059 38.6612 22.7966L38.7197 22.7905C39.5545 22.6964 40.23 22.2973 40.3122 21.4002L40.3189 21.3211L40.3238 21.2541L40.3283 21.1791L40.3309 21.1145L40.3332 21.023V19.4908H38.3105ZM28.3806 16.9822H26.9344V21.2126C26.9367 21.2863 26.9344 21.3691 26.9217 21.4298L26.9174 21.4482L26.9122 21.4678C26.9102 21.4745 26.9081 21.4814 26.9058 21.4884L26.8982 21.5099C26.8437 21.6553 26.7047 21.8451 26.3722 21.8451C26.0604 21.8451 25.918 21.6738 25.8584 21.532L25.8496 21.5099C25.8483 21.5063 25.847 21.5027 25.8457 21.4991L25.8389 21.478L25.8333 21.4579C25.8324 21.4546 25.8316 21.4514 25.8309 21.4482L25.8269 21.4298C25.8124 21.3691 25.8106 21.2863 25.8124 21.2126V16.9822H24.3667V21.0813L24.3664 21.1142L24.3669 21.1719L24.3689 21.2566L24.3729 21.3597L24.3757 21.4116L24.3775 21.4391L24.3794 21.4593C24.4502 22.2177 24.8951 22.6125 25.5234 22.7777L25.577 22.7911C25.6939 22.819 25.8168 22.8393 25.9444 22.8529L26.0037 22.8587L26.0636 22.8635L26.1242 22.8674C26.1546 22.8692 26.1853 22.8706 26.2161 22.8716L26.2781 22.8733L26.3407 22.8742C26.3512 22.8743 26.3617 22.8743 26.3722 22.8743L26.4351 22.8739C26.4455 22.8737 26.456 22.8735 26.4664 22.8733L26.5285 22.8716C26.5594 22.8706 26.5901 22.8692 26.6206 22.8674L26.6812 22.8635L26.7413 22.8587L26.8006 22.8529C27.6465 22.763 28.2809 22.3779 28.3683 21.4593L28.3695 21.4502L28.3719 21.4261L28.3754 21.3782L28.3785 21.3201L28.3802 21.2781L28.382 21.2137L28.3825 21.1719L28.3823 21.1325L28.3814 21.0971C28.3812 21.0916 28.3809 21.0863 28.3806 21.0813V16.9822ZM15.0926 16.9822L14.3711 21.4522L13.6502 16.9822H11.3173L11.1936 22.7006H12.6228L12.6615 17.4069L13.6448 22.7006H15.0948L16.079 17.4069L16.1179 22.7006H17.5507L17.4228 16.9822H15.0926ZM6.45529 16.9822L5.39603 22.7006H6.94071L7.73893 17.4069L8.51799 22.7006H10.052L8.9971 16.9822H6.45529ZM33.4349 21.5862L32.0882 16.9822H29.9662V22.6409H31.37L31.2885 17.8897L32.7347 22.6409H34.7698V16.9822H33.3569L33.4349 21.5862ZM20.4502 18.4704C20.4248 18.3575 20.4322 18.2375 20.4453 18.1748C20.449 18.1582 20.4534 18.1414 20.4586 18.1246L20.467 18.0996C20.524 17.941 20.6575 17.7921 20.9635 17.7921C21.2938 17.7921 21.4874 17.998 21.4874 18.307V18.6566H22.8972V18.2581C22.8972 17.3587 22.3086 17.0127 21.6796 16.8914L21.6278 16.8819L21.5759 16.8734L21.524 16.8659L21.4721 16.8592L21.4202 16.8534L21.3686 16.8483C21.3514 16.8468 21.3342 16.8454 21.3171 16.8441L21.266 16.8406L21.2152 16.8377L21.1648 16.8356L21.1149 16.834L21.0656 16.833L20.9928 16.8324L20.9608 16.8325L20.897 16.8335C20.8864 16.8337 20.8758 16.8339 20.8653 16.8343L20.8023 16.8366C20.7815 16.8375 20.7607 16.8386 20.74 16.8398L20.6782 16.844C19.8182 16.9098 19.147 17.2631 19.0127 18.0916C18.973 18.3438 18.9632 18.5678 19.0264 18.8536C19.1259 19.3232 19.5171 19.6574 19.9662 19.9376L20.0357 19.9804C20.0473 19.9874 20.059 19.9944 20.0707 20.0014L20.1413 20.043L20.2122 20.0838L20.2834 20.1241L20.3903 20.1835L20.6712 20.3374L20.7394 20.3752L20.8065 20.4129L20.8722 20.4505L20.9363 20.4882C21.2424 20.6704 21.4876 20.8551 21.5758 21.0759C21.6247 21.2071 21.614 21.3725 21.5904 21.478L21.5863 21.495C21.5805 21.5204 21.5732 21.5458 21.564 21.5707L21.5541 21.5955C21.4891 21.7473 21.3472 21.8766 21.0352 21.8766C20.6794 21.8766 20.4652 21.6721 20.4652 21.3637L20.4648 20.815H18.9473V21.2512C18.9473 22.2751 19.5969 22.7198 20.4105 22.8519L20.471 22.8611C20.5116 22.8668 20.5525 22.8719 20.5938 22.8762L20.6559 22.8821C20.7286 22.8884 20.8021 22.8925 20.8762 22.8947L20.9399 22.8961C20.9505 22.8963 20.9612 22.8964 20.9718 22.8965L21.0038 22.8966C21.0251 22.8966 21.0463 22.8965 21.0674 22.8961L21.1305 22.8948C21.141 22.8945 21.1514 22.8941 21.1618 22.8937L21.2241 22.8909C21.2448 22.8899 21.2654 22.8886 21.2859 22.8872L21.3471 22.8825C21.3876 22.879 21.4278 22.8749 21.4675 22.8701L21.5267 22.8624L21.5852 22.8537C21.6045 22.8506 21.6238 22.8473 21.6429 22.8439L21.6999 22.8331C22.3886 22.6951 22.901 22.321 23.0039 21.6016C23.0181 21.4943 23.0268 21.3952 23.0315 21.3046L23.0341 21.2455C23.0344 21.2358 23.0347 21.2263 23.0349 21.2169L23.0359 21.1616V21.1088L23.035 21.0587L23.0333 21.0112L23.031 20.9663C23.0306 20.959 23.0301 20.9518 23.0297 20.9448L23.0265 20.9039L23.023 20.8656L23.0191 20.8301L23.0128 20.7818L23.0063 20.7398L22.9978 20.6934L22.9939 20.6745C22.8946 20.1765 22.4586 19.8248 21.9743 19.5353L21.9048 19.4943L21.8348 19.4542L21.7646 19.4148L21.6591 19.3569L21.5192 19.2818L21.2806 19.1549L21.1824 19.1018C21.1717 19.0959 21.161 19.0901 21.1504 19.0842L21.0876 19.0492L21.0266 19.0143C20.7261 18.84 20.4989 18.669 20.4502 18.4704ZM1.85319 18.4564C1.82724 18.3483 1.83129 18.2346 1.84461 18.1686L1.85012 18.1438L1.85637 18.1194C1.904 17.9477 2.03421 17.7707 2.37077 17.7707C2.70523 17.7707 2.90216 17.9785 2.90216 18.29V18.6439H4.32848V18.2422C4.32848 17.3839 3.79452 17.0235 3.19787 16.8825L3.14584 16.8707C3.10237 16.8614 3.05864 16.8532 3.01483 16.846L2.96224 16.8379L2.90964 16.8306L2.85711 16.8243L2.8047 16.8187C2.78726 16.817 2.76986 16.8155 2.75249 16.814L2.70056 16.8101L2.64896 16.8068L2.59777 16.8043L2.54706 16.8024L2.49689 16.8011L2.4228 16.8H2.39845C2.37707 16.8 2.35577 16.8002 2.33456 16.8005L2.27118 16.8019C2.22911 16.8031 2.1874 16.8049 2.1461 16.8074L2.08445 16.8116C2.07423 16.8123 2.06403 16.8132 2.05386 16.814L1.99318 16.8197C1.97306 16.8217 1.95305 16.8239 1.93316 16.8263L1.87384 16.8339C1.82471 16.8407 1.77634 16.8486 1.7288 16.8575L1.67216 16.8688L1.61634 16.8811L1.56137 16.8946C1.54319 16.8992 1.52516 16.9041 1.50728 16.9091L1.4541 16.9247C0.90056 17.0949 0.50165 17.4518 0.400951 18.071C0.359392 18.3273 0.352269 18.5528 0.412333 18.8418C0.518076 19.3411 0.949352 19.6888 1.43185 19.981L1.50279 20.0233C1.51466 20.0303 1.52656 20.0373 1.53848 20.0442L1.61016 20.0855L1.7181 20.1463L1.86179 20.2256L2.07373 20.3418L2.1767 20.3991L2.27679 20.4562L2.3416 20.4943C2.35227 20.5006 2.36286 20.507 2.37337 20.5133L2.43548 20.5515C2.70038 20.7174 2.90784 20.8883 2.98793 21.0887C3.04038 21.219 3.02811 21.3843 3.00332 21.4933L2.99909 21.5109C2.99297 21.536 2.98545 21.5611 2.97616 21.5858L2.96626 21.6103C2.89962 21.7648 2.75662 21.8972 2.4406 21.8972C2.08338 21.8972 1.86971 21.6891 1.86971 21.3765L1.86773 20.8263H0.333252V21.2635C0.333252 22.4909 1.25864 22.8943 2.28348 22.9246L2.34765 22.926L2.41204 22.9265L2.47571 22.926C2.50742 22.9256 2.53894 22.9248 2.57027 22.9236L2.63263 22.9209C2.66368 22.9193 2.69451 22.9173 2.72512 22.915L2.78601 22.9098L2.84627 22.9037C2.86625 22.9015 2.88612 22.8992 2.90587 22.8966L2.96477 22.8885C2.98429 22.8856 3.00369 22.8826 3.02296 22.8794L3.08039 22.8692C3.79357 22.7357 4.32507 22.3574 4.43208 21.6174C4.44683 21.5117 4.45604 21.4139 4.46119 21.3243L4.46404 21.2658L4.46577 21.2097C4.46618 21.1914 4.46642 21.1735 4.4665 21.1561L4.46631 21.1049L4.4653 21.0562L4.46357 21.0101L4.46122 20.9665L4.45833 20.9254L4.45502 20.8869L4.44944 20.8339L4.44343 20.7868L4.43531 20.7333L4.42606 20.6814C4.32711 20.1893 3.90416 19.8393 3.42831 19.5513L3.35833 19.5096C3.34661 19.5027 3.33487 19.4959 3.32311 19.4891L3.25235 19.4486L3.1813 19.4089L3.11016 19.3698L3.03912 19.3315L2.72564 19.1651L2.6254 19.1113L2.5603 19.0758L2.4968 19.0405L2.4351 19.0054C2.42498 18.9995 2.41494 18.9937 2.40498 18.9878L2.34633 18.9527C2.08733 18.795 1.89714 18.6371 1.85319 18.4564Z" fill="#1428A0"/>
</g>
<defs>
<clipPath id="clip0_82_2362">
<rect width="40" height="40" fill="white" transform="translate(0.333252)"/>
</clipPath>
</defs>
</svg>
