<svg width="41" height="40" viewBox="0 0 41 40" fill="none" xmlns="http://www.w3.org/2000/svg">
<g clip-path="url(#clip0_82_278)">
<path fill-rule="evenodd" clip-rule="evenodd" d="M31.741 18.8858C32.1075 18.8151 34.6472 18.8858 35.2323 18.8858C35.7987 18.8441 36.3681 18.8657 36.9297 18.9501C39.4051 19.5931 39.3858 23.4509 36.7047 23.9331C36.306 24.0038 33.8113 23.9331 33.207 23.9331C32.6403 23.971 32.0711 23.9473 31.5095 23.8624C31.1711 23.7627 30.8569 23.5946 30.5862 23.3683C30.3156 23.142 30.0944 22.8625 29.9364 22.5471C29.7784 22.2317 29.687 21.8872 29.6678 21.535C29.6486 21.1828 29.7021 20.8303 29.825 20.4997C29.9665 20.0784 30.2214 19.7043 30.5617 19.4184C30.902 19.1326 31.3145 18.9461 31.7539 18.8794L31.741 18.8858ZM40.2989 21.882C40.3858 21.2033 40.3026 20.5136 40.0568 19.875C39.811 19.2364 39.4103 18.6689 38.8908 18.2236C38.3981 17.8059 37.8111 17.5146 37.1805 17.3749C36.3661 17.2716 35.5439 17.2436 34.7243 17.2913H32.1525C31.4374 17.2746 30.7317 17.4572 30.1143 17.8185C29.5491 18.1612 29.0729 18.6326 28.7243 19.1942C28.3757 19.7557 28.1646 20.3917 28.1082 21.0503C28.0518 21.7088 28.1517 22.3714 28.3997 22.9841C28.6478 23.5968 29.037 24.1422 29.5356 24.5761C30.8216 25.6755 32.0689 25.5148 33.6956 25.5148H36.2675C37.2735 25.5286 38.2477 25.1621 38.9952 24.4885C39.7426 23.815 40.2082 22.8841 40.2989 21.882ZM16.0848 18.4036C16.248 18.7838 16.4645 19.1389 16.7278 19.4581L18.7531 22.4286C19.126 23.0137 19.6404 23.8559 20.0776 24.4153C20.3169 24.7761 20.6447 25.0696 21.0296 25.2677C21.4146 25.4658 21.8439 25.5619 22.2766 25.5469C22.691 25.5113 23.0906 25.3757 23.4411 25.1517C23.7916 24.9278 24.0826 24.6221 24.289 24.261C24.7263 23.618 25.1699 22.9751 25.6328 22.2807L27.9989 18.7765C28.1031 18.6418 28.1639 18.4786 28.1734 18.3086C28.1829 18.1386 28.1407 17.9697 28.0522 17.8241C27.9638 17.6786 27.8333 17.5633 27.6781 17.4934C27.5228 17.4235 27.3499 17.4024 27.1824 17.4327C26.9924 17.5013 26.8188 17.6088 26.6726 17.7483C26.5265 17.8878 26.411 18.0562 26.3337 18.2429L24.9899 20.236C24.5462 20.879 24.0961 21.567 23.6461 22.2164C23.4146 22.5507 23.2089 22.8593 23.0031 23.2065C22.7974 23.5537 22.5145 23.9781 22.0065 23.8495C21.6422 23.6714 21.3496 23.3742 21.1771 23.0072L20.5341 22.0171C20.084 21.3741 19.6533 20.7311 19.1839 20.0367C18.7145 19.3423 18.3095 18.7508 17.8401 18.0564C17.7654 17.8508 17.6244 17.676 17.4392 17.5596C17.2541 17.4431 17.0354 17.3917 16.8178 17.4134C16.703 17.4265 16.5921 17.463 16.492 17.5208C16.3919 17.5786 16.3048 17.6563 16.236 17.7492C16.1673 17.842 16.1184 17.9481 16.0924 18.0607C16.0664 18.1732 16.0638 18.29 16.0848 18.4036ZM0.351467 18.3843C0.507771 18.768 0.724874 19.1241 0.994432 19.4388L3.68845 23.3994C4.33142 24.4025 4.97438 25.5984 6.53679 25.5469C7.95131 25.4955 8.53641 24.3124 9.25653 23.2451L11.2819 20.2746C11.494 19.9531 11.7255 19.6317 11.957 19.2845C12.2616 18.978 12.4444 18.5712 12.4713 18.14C12.4558 18.0282 12.4178 17.9206 12.3599 17.8238C12.3019 17.7269 12.225 17.6427 12.1339 17.5761C12.0427 17.5095 11.9391 17.462 11.8292 17.4362C11.7193 17.4105 11.6053 17.4071 11.494 17.4263C11.3013 17.4874 11.1246 17.5907 10.9767 17.7286C10.8287 17.8665 10.7134 18.0356 10.6389 18.2236C10.1695 18.9115 9.75161 19.5159 9.28867 20.236C8.82574 20.9562 8.40138 21.522 7.93845 22.1649C7.70055 22.5057 7.50123 22.8079 7.29548 23.1551C7.21954 23.3535 7.08579 23.5245 6.91154 23.646C6.7373 23.7675 6.53059 23.8339 6.31818 23.8366C5.93933 23.6727 5.63625 23.372 5.46946 22.9944C4.35714 21.4062 3.1998 19.6638 2.10033 18.0371C2.02408 17.834 1.88362 17.6612 1.70026 17.5452C1.51691 17.4291 1.30069 17.3761 1.08445 17.3941C0.969637 17.4072 0.858742 17.4438 0.758663 17.5015C0.658583 17.5593 0.571458 17.637 0.502707 17.7299C0.433957 17.8228 0.385051 17.9288 0.359032 18.0414C0.333014 18.154 0.330439 18.2707 0.351467 18.3843ZM14.1109 17.4327C13.2879 17.6063 13.4229 18.3072 13.4229 19.1816V24.0938C13.3638 24.4627 13.4152 24.8408 13.5708 25.1804C13.6598 25.3108 13.7836 25.4135 13.9281 25.477C14.0726 25.5404 14.232 25.5619 14.3882 25.5391C14.5443 25.5163 14.6909 25.4501 14.8113 25.3481C14.9317 25.246 15.0209 25.1122 15.0689 24.9618C15.1461 24.7046 15.1075 21.747 15.1075 21.3162V18.8537C15.1651 18.4875 15.116 18.1125 14.9661 17.7735C14.8763 17.6379 14.7484 17.532 14.5985 17.4691C14.4486 17.4062 14.2834 17.389 14.1238 17.4199L14.1109 17.4327ZM14.1559 14.4494C14.0356 14.5284 13.9328 14.6313 13.8537 14.7516L13.2108 15.3559C12.825 15.7353 13.1465 15.9089 13.6415 16.3783L13.9437 16.6805C14.3359 17.0727 14.4838 16.7833 14.9982 16.269C15.7183 15.581 15.6926 15.7353 14.5803 14.623C14.5398 14.5501 14.4757 14.4932 14.3986 14.4616C14.3214 14.4301 14.2358 14.4257 14.1559 14.4494Z" fill="#0072B8"/>
</g>
<defs>
<clipPath id="clip0_82_278">
<rect width="40" height="40" fill="white" transform="translate(0.333252)"/>
</clipPath>
</defs>
</svg>
