<svg width="40" height="40" viewBox="0 0 40 40" fill="none" xmlns="http://www.w3.org/2000/svg">
<g clip-path="url(#clip0_82_2349)">
<path fill-rule="evenodd" clip-rule="evenodd" d="M38.4815 40H1.51852C0.679829 40 0 39.3201 0 38.4815V1.51815C0 0.679455 0.679829 3.8147e-06 1.51852 3.8147e-06H38.4815C39.3202 3.8147e-06 40 0.679455 40 1.51815V38.4815C40 39.3201 39.3202 40 38.4815 40Z" fill="#FF6700"/>
<path d="M31.3976 12.6501H28.2549C28.1203 12.6501 28.0113 12.7572 28.0113 12.8891V27.2292C28.0113 27.36 28.1203 27.467 28.2549 27.467H31.3976C31.5311 27.467 31.6415 27.36 31.6415 27.2292V12.8891C31.6415 12.7572 31.5311 12.6501 31.3976 12.6501ZM20.6669 12.6501H8.69564C8.56106 12.6501 8.45288 12.7572 8.45288 12.8891V27.2292C8.45288 27.36 8.56106 27.467 8.69564 27.467H11.8392C11.973 27.467 12.0838 27.36 12.0838 27.2292V15.9744C12.0838 15.8444 12.192 15.7366 12.3266 15.7366H19.098C21.0022 15.7366 21.5427 17.1951 21.5427 18.1359V27.2292C21.5427 27.36 21.652 27.467 21.7866 27.467H24.9282C25.062 27.467 25.1718 27.36 25.1718 27.2292V17.0563C25.1718 16.2171 25.0708 15.0105 23.9882 13.9485C22.8555 12.8398 21.8222 12.6501 20.6669 12.6501Z" fill="white"/>
<path d="M18.465 18.3619H15.1647C15.0301 18.3619 14.9197 18.4689 14.9197 18.6001V27.2304C14.9197 27.3607 15.0301 27.4678 15.1647 27.4678H18.465C18.5984 27.4678 18.7077 27.3607 18.7077 27.2304V18.6001C18.7077 18.4689 18.5984 18.3619 18.465 18.3619Z" fill="white"/>
</g>
<defs>
<clipPath id="clip0_82_2349">
<rect width="40" height="40" fill="white"/>
</clipPath>
</defs>
</svg>
